<?xml version="1.0" encoding="UTF-8"?>
<svg id="logo" xmlns="http://www.w3.org/2000/svg" version="1.1" viewBox="0 0 695.18 772.08">
  <!-- Generator: Adobe Illustrator 30.5.1, SVG Export Plug-In . SVG Version: 2.1.4 Build 3)  -->
  <defs>
    <style>
      .st0 {
        fill: #375f7a;
      }

      .st1 {
        fill: #26baa5;
      }
    </style>
  </defs>
  <path class="st1" d="M441.08,269.96c-52.65,33.16-77.68,83.79-91.81,143.22-29.89-114.3-95.37-181.76-217.66-183.52,6.32-88.77,32.92-170.44,118.98-209.68,21.03-9.59,42.74-14.26,65.67-17.68,21.53-3.21,41.85-2.96,63.39.07,51.68,7.27,95.71,24.73,130.76,64.48,39.88,45.23,56.04,109.26,59.84,168.94-44.91-.04-92.15,10.86-129.16,34.17Z"/>
  <path class="st0" d="M566.62,566.12l-98.82-65.23c-4.19-2.77-8.35-2.15-11.94.16-4.29,2.76-6.13,6.79-6.4,11.46-.27,4.72,2.48,8.04,6.8,11.14l96.68,69.32c3.88,2.78,3.33,9.48,1.5,12.42-2.39,3.82-8.11,5.88-12.94,3.87l-70.78-29.51c-9.67-4.03-19.4,5.87-20.64,15.39-.95,7.24,3.26,13.69,9.8,16.76,18.96,8.88,36.37,18.84,53.93,30.49,19.57,12.99,38.25,26.02,55.61,43.41-55.53,13.1-110.72,29.77-158.96,58.15-13.25,7.8-24.24,16.94-35.81,28.13l.5-315.96c.05-32,10.16-62.27,23.6-90.48,10.53-22.1,25.71-40.6,44.44-55.75,16.15-13.07,33.9-21.19,53.7-27.44,41.81-13.21,84.4-19.06,128.27-21.64l59.72-.39,10.19,1.29.12,163.1c-14.84,2.14-21.88,22.37-23.74,37.67l-3.71,30.48c-.23,1.9-2.86,3.72-3.95,4.46-1.48,1-4.26.08-6.07-1.71l-77.3-76.38-25.91-25.23c-5.04-4.91-13.22-4.91-19.07-1.71-5.18,2.83-10.42,9.46-9.48,16.16.72,5.11,3.7,8.9,7.1,12.18l81.5,78.45c4.93,4.75,4.8,12.5.94,18-2.85,4.07-11.55,7.41-17.18,2.9l-118.46-94.69c-7.4-5.92-19.59-.96-23.52,5.71-5.39,9.14-2.43,18.1,5.76,24.63l116.52,92.96c4.79,3.82,5.81,10.11,3.04,14.52-2.75,4.38-9.46,6.62-15.04,2.94Z"/>
  <path class="st0" d="M128.61,565.48c-4.75,3.13-10.26,3.48-14.39.11-3.56-2.9-4.86-11.75-.45-15.26l122.11-97.37c4.65-3.71,6.83-7.86,7.12-12.67.35-5.84-1.55-9.92-6.38-14.48-4.66-4.4-14.24-6.32-20.46-1.37l-118.05,93.97c-6.13,4.88-13.96,4.49-19.13-.88-5.09-5.3-4.31-13.63,1.48-19.22l83.17-80.28c6.52-6.29,5.53-14.79.24-21.15-5.43-6.53-16.87-10.26-24.36-2.88l-92.24,90.88-10.96,10.59c-1.67,1.61-4.96,2.85-6.84,1.33-4.13-3.31-4.64-8.39-4.7-13.48-.25-19.78-5.79-54.16-24.75-58.3l.02-163.59,10.9-1.1,58.48.46c42.91,2.13,84.3,8.8,125.35,20.72,80.03,23.24,114.71,89.45,125.02,169.05l.12,317c0,1.48-.41,3.01-.97,3.33-1.24.71-1.94-.65-2.89-1.65-39.69-41.97-131.93-69.35-189.97-82.64,15.93-16.37,33.85-29.48,52.72-42.46,18.55-12.76,37.02-23.92,57.26-33.18,8.79-5.42,11.9-15.09,7.48-23.07-5.09-9.19-14.29-11.29-23.68-7.28l-67.7,28.97c-5.05,2.16-10.87-1-12.51-4.73-2.05-4.66-1.64-10.02,3.05-13.29l98.57-68.81c5.48-3.82,5.43-11.47,3.13-16.7-1.87-4.25-10.58-9.89-16.09-6.26l-99.65,65.67Z"/>
</svg>