<?xml version="1.0" encoding="UTF-8"?>
<svg id="logo" xmlns="http://www.w3.org/2000/svg" version="1.1" viewBox="0 0 756.51 352.52">
  <!-- Generator: Adobe Illustrator 30.5.1, SVG Export Plug-In . SVG Version: 2.1.4 Build 3)  -->
  <defs>
    <style>
      .st0 {
        fill: #375f7a;
      }

      .st1 {
        fill: #26baa5;
      }
    </style>
  </defs>
  <path class="st1" d="M707.16,260.36l47.23-.08c-2.02,24.52-17.28,44.94-39.59,54.64-10.7,4.66-21.58,7.91-33.31,9.03-7.02.67-13.48.16-20.31-.85-18.31-2.7-35.57-6.82-50.22-18.56l-7.88-7.8c-5.5-6.77-9.69-14-13.65-21.8-6.58-12.96-10.61-26.67-11.35-41.36-1.6-31.92,5.05-69.88,29.89-91.39,30.15-26.12,74.15-27.87,108.61-9.72,20.87,10.99,32.58,33.65,36.93,56.26,1.75,7.23,2.16,14.35,2.78,21.77l.21,21.42-128.47-.02.02,8.77c.01,5.92,1.24,11.58,2.89,17.23,2.8,9.55,7.42,18.19,15.34,24.5,17.06,13.6,44.32,12.61,55.75-8.07,2.37-4.32,3.94-8.56,5.12-13.98ZM706.54,203.78l-1-12.66c-.3-3.76-1.29-7.13-2.41-10.74-2.41-7.7-6.33-14.93-12.35-20.29-6.08-5.41-13.51-8.76-21.55-8.46-10.49.39-19.94,4.71-26.45,12.77-8.8,10.58-13.4,25.33-14.32,39.37h78.09Z"/>
  <path class="st1" d="M538.12,288.69h33.3s.57,32.06.57,32.06l-111.41.02-.22-32.08,27.36.02-2.26-135.74-29.43.03-.55-32.04,29.51-.02-.05-27.84c.53-6.38,1.8-12.39,3.92-18.3,2.96-7.4,7.33-13.68,13.83-18.33,12.09-8.64,25.79-13.97,40.7-15.29,0,0,14.5-.45,20.36-.06,7.02.46,13.6,2.69,20.59,4.4l.25,23.65.1,10.37c-17.67-3.21-35.56-5.45-46.73,9.49-2.04,5.73-2.88,11.58-2.42,17.67l-.07,14.24,34.02-.06c.93,2.72.92,5.62.91,8.71l-.06,23.39-34.34-.03,2.09,135.74Z"/>
  <path class="st1" d="M193.29,132.48c-23.07,14.53-34.04,36.72-40.24,62.76-13.1-50.09-41.8-79.65-95.39-80.42,2.77-38.9,14.43-74.69,52.14-91.89,9.21-4.2,18.73-6.25,28.78-7.75,9.43-1.41,18.34-1.3,27.78.03,22.65,3.18,41.94,10.84,57.3,28.26,17.48,19.82,24.56,47.88,26.22,74.03-19.68-.02-40.38,4.76-56.6,14.97Z"/>
  <path class="st0" d="M248.31,262.26l-43.31-28.59c-1.84-1.21-3.66-.94-5.23.07-1.88,1.21-2.69,2.98-2.8,5.02-.12,2.07,1.09,3.52,2.98,4.88l42.37,30.38c1.7,1.22,1.46,4.16.66,5.44-1.05,1.67-3.56,2.58-5.67,1.7l-31.02-12.93c-4.24-1.77-8.5,2.57-9.05,6.74-.41,3.17,1.43,6,4.3,7.34,8.31,3.89,15.94,8.26,23.63,13.36,8.58,5.69,16.76,11.4,24.37,19.03-24.33,5.74-48.52,13.05-69.66,25.48-5.81,3.42-10.62,7.42-15.69,12.33l.22-138.46c.02-14.02,4.45-27.29,10.34-39.65,4.62-9.68,11.27-17.79,19.48-24.43,7.08-5.73,14.86-9.28,23.53-12.03,18.32-5.79,36.99-8.35,56.21-9.48l26.17-.17,4.46.57.05,71.48c-6.5.94-9.59,9.8-10.4,16.51l-1.62,13.36c-.1.83-1.25,1.63-1.73,1.95-.65.44-1.87.04-2.66-.75l-33.87-33.47-11.35-11.06c-2.21-2.15-5.79-2.15-8.36-.75-2.27,1.24-4.57,4.15-4.15,7.08.32,2.24,1.62,3.9,3.11,5.34l35.72,34.38c2.16,2.08,2.1,5.48.41,7.89-1.25,1.78-5.06,3.25-7.53,1.27l-51.91-41.5c-3.24-2.59-8.59-.42-10.31,2.5-2.36,4-1.06,7.93,2.52,10.79l51.06,40.74c2.1,1.67,2.54,4.43,1.33,6.36-1.2,1.92-4.15,2.9-6.59,1.29Z"/>
  <path class="st0" d="M56.36,261.98c-2.08,1.37-4.5,1.53-6.31.05-1.56-1.27-2.13-5.15-.2-6.69l53.51-42.67c2.04-1.62,2.99-3.45,3.12-5.55.15-2.56-.68-4.35-2.8-6.34-2.04-1.93-6.24-2.77-8.96-.6l-51.73,41.18c-2.69,2.14-6.12,1.97-8.38-.39-2.23-2.32-1.89-5.97.65-8.42l36.45-35.18c2.86-2.76,2.42-6.48.1-9.27-2.38-2.86-7.39-4.5-10.68-1.26l-40.42,39.83-4.8,4.64c-.73.71-2.17,1.25-3,.58-1.81-1.45-2.03-3.68-2.06-5.91-.11-8.67-2.54-23.74-10.85-25.55v-71.69s4.78-.48,4.78-.48l25.63.2c18.8.93,36.94,3.86,54.93,9.08,35.07,10.18,50.27,39.2,54.79,74.08l.05,138.92c0,.65-.18,1.32-.43,1.46-.54.31-.85-.28-1.27-.72-17.39-18.39-57.82-30.39-83.25-36.21,6.98-7.17,14.83-12.92,23.11-18.61,8.13-5.59,16.22-10.48,25.09-14.54,3.85-2.38,5.21-6.61,3.28-10.11-2.23-4.03-6.26-4.95-10.38-3.19l-29.67,12.7c-2.21.95-4.76-.44-5.48-2.07-.9-2.04-.72-4.39,1.34-5.82l43.19-30.15c2.4-1.68,2.38-5.03,1.37-7.32-.82-1.86-4.64-4.34-7.05-2.74l-43.67,28.78Z"/>
  <polygon class="st1" points="433.29 319.96 345.64 320.01 345.61 288.59 371.17 288.58 371.14 157.33 345.7 157.23 345.63 125.49 421.2 125.33 421.21 288.59 442.96 288.42 443.04 320.07 433.29 319.96"/>
  <polygon class="st0" points="420.33 96.38 371.32 96.39 371.19 52.03 420.27 51.99 420.33 96.38"/>
  <polygon class="st1" points="349.31 109.97 306.36 110.04 306.36 67.49 349.31 67.49 349.31 109.97"/>
  <polygon class="st0" points="321.85 38.86 289.66 38.91 289.65 7.29 321.83 7.25 321.85 38.86"/>
  <polygon class="st1" points="371.64 28.3 342.8 28.34 342.79 .01 371.62 0 371.64 28.3"/>
</svg>